<svg version="1.1" id="Layer_1" xmlns="http://www.w3.org/2000/svg" xmlns:xlink="http://www.w3.org/1999/xlink" x="0px" y="0px"
	 width="100%" viewBox="0 0 512 512" enable-background="new 0 0 512 512" xml:space="preserve">
<path fill="#000000" opacity="1.000000" stroke="none" 
	d="
M513.000000,180.000000 
	C513.000000,291.306274 513.000000,402.112549 513.000000,512.959412 
	C342.402039,512.959412 171.804092,512.959412 1.103063,512.959412 
	C1.103063,342.443756 1.103063,171.887421 1.103063,1.165548 
	C171.666534,1.165548 342.333252,1.165548 513.000000,1.165548 
	C513.000000,60.529209 513.000000,120.014603 513.000000,180.000000 
M114.962952,373.411926 
	C119.438507,365.978638 123.916328,358.546722 128.389099,351.111725 
	C136.426071,337.752075 144.442581,324.380066 152.507675,311.037415 
	C154.492157,307.754333 154.855392,304.446411 152.043640,301.666260 
	C149.510681,299.161743 146.482086,298.573486 142.749527,299.872589 
	C137.467056,301.711212 131.910538,302.762421 125.138214,304.490234 
	C126.148285,295.643890 126.764809,287.507721 128.055450,279.479858 
	C131.272324,259.470642 140.842651,242.452850 154.116776,227.534454 
	C164.050064,216.370712 176.289230,208.163589 189.931458,201.969055 
	C211.654739,192.105194 234.389664,190.070984 257.255554,195.320312 
	C284.396576,201.551086 306.281830,216.666275 322.166046,239.750610 
	C334.674255,257.928619 341.277527,278.150696 340.913788,300.335083 
	C340.801697,307.170441 340.124756,314.071777 338.911499,320.799500 
	C335.524567,339.580292 327.294403,356.210083 314.817780,370.574890 
	C303.672333,383.407104 290.260040,393.364441 274.454437,399.858398 
	C263.019958,404.556488 251.073853,407.834991 238.748337,407.882141 
	C173.256226,408.132721 107.762642,407.997345 42.269569,408.004211 
	C35.798798,408.004913 33.011192,410.770935 33.005127,417.193817 
	C32.989708,433.525421 32.995224,449.857025 33.001995,466.188629 
	C33.005444,474.500427 34.480110,475.999817 42.594501,475.999817 
	C164.414948,476.000061 286.235413,476.000000 408.055847,476.000000 
	C409.982056,476.000000 411.908234,476.000000 414.000000,476.000000 
	C414.000000,483.265594 414.198578,489.923981 413.917755,496.562103 
	C413.773407,499.974274 414.779053,502.915436 417.789673,503.705750 
	C420.732697,504.478333 424.107971,504.868469 426.892151,501.776520 
	C433.648468,494.273254 440.730682,487.061768 447.731812,479.781036 
	C457.389984,469.737122 467.062744,459.706818 476.791321,449.731201 
	C482.306671,444.075775 482.488098,442.486633 477.573944,436.093964 
	C475.883636,433.895081 474.128906,431.720459 472.193909,429.739624 
	C466.721527,424.137665 461.022583,418.753906 455.628265,413.079437 
	C445.954803,402.903503 436.491516,392.527802 426.820129,382.349854 
	C424.389862,379.792328 420.852234,378.661926 417.969238,380.805511 
	C416.011597,382.261078 414.368103,385.294006 414.175995,387.746277 
	C413.660309,394.328796 414.000000,400.978363 414.000000,407.796875 
	C400.242920,407.796875 386.872833,407.796875 372.987122,407.796875 
	C382.580505,395.119110 390.243622,381.852173 396.189972,367.528503 
	C401.905426,353.760956 406.113678,339.548157 407.789337,324.846558 
	C409.153046,312.881897 409.429749,300.664612 408.772827,288.636688 
	C408.183899,277.853790 406.436005,266.986481 403.852509,256.487854 
	C395.974396,224.473511 379.778015,196.878860 356.180695,174.044205 
	C346.810364,164.976730 335.454956,157.962540 325.022705,149.988129 
	C323.725403,148.996475 321.930603,148.082550 321.418243,146.733185 
	C318.757812,139.726776 315.036163,132.738373 314.271515,125.471420 
	C312.225281,106.025879 318.917145,89.726944 334.841980,77.616180 
	C354.787231,62.447876 381.177002,63.560162 400.095306,79.743118 
	C417.341522,94.495796 423.118683,117.321999 414.145996,139.284485 
	C409.639191,136.832520 405.332520,133.935806 400.604980,132.158508 
	C398.350830,131.311066 394.613739,131.726700 392.801514,133.157471 
	C391.071869,134.523041 389.753479,138.286346 390.342560,140.418701 
	C395.635834,159.578903 401.335754,178.628021 407.041321,197.672272 
	C408.785767,203.495041 412.653992,205.183075 418.938751,203.604492 
	C437.174500,199.024094 455.406616,194.423264 473.700806,190.086166 
	C477.680450,189.142670 480.341644,187.293274 480.925079,183.346252 
	C481.497559,179.473343 479.139191,176.854492 475.995605,175.025665 
	C472.111603,172.766083 468.132599,170.669815 464.193481,168.502335 
	C482.665955,132.519714 481.907196,83.228294 447.355469,45.259087 
	C418.867828,13.953721 381.591156,2.234157 341.096649,12.597435 
	C283.949432,27.222448 257.166901,67.875526 255.461060,125.313629 
	C198.677139,119.876244 149.165207,135.596939 108.780212,175.989258 
	C68.349686,216.427109 52.874283,266.241180 58.146187,322.517456 
	C51.283642,324.443329 44.994026,326.404358 38.600510,327.929993 
	C34.694481,328.862030 33.109703,331.851959 33.257351,334.869293 
	C33.376675,337.307770 35.172550,340.685089 37.237762,341.850159 
	C58.795002,354.011230 80.539223,365.841980 102.274887,377.684875 
	C107.582054,380.576508 111.412140,379.306641 114.962952,373.411926 
M236.381409,231.000000 
	C233.050629,231.000000 229.719803,230.991867 226.389053,231.001709 
	C219.822952,231.021118 216.975021,234.048355 215.827179,240.605774 
	C215.375092,243.188568 213.487976,246.315720 211.320847,247.532654 
	C209.789017,248.392822 206.364441,246.956879 204.356644,245.660416 
	C200.715897,243.309586 197.057022,241.685364 193.128326,244.047333 
	C189.428162,246.271866 186.075790,249.105835 182.699875,251.831985 
	C176.384933,256.931458 174.594986,263.864136 179.937408,272.078461 
	C183.409195,277.416534 181.417038,281.020203 175.125259,282.018433 
	C168.172058,283.121613 163.843185,286.495331 163.989578,294.697479 
	C164.051971,298.193726 164.180527,301.703247 163.962463,305.186951 
	C163.507904,312.448456 167.843918,316.554718 174.521255,317.941284 
	C181.862274,319.465668 183.468369,322.893860 179.360107,329.130829 
	C175.396576,335.148071 175.872940,340.337952 180.857269,345.339508 
	C183.442719,347.933868 186.173874,350.397797 188.600464,353.132477 
	C193.043015,358.139069 199.258255,358.253540 204.182022,354.146881 
	C206.834259,351.934784 209.506058,350.821625 212.069321,352.803680 
	C213.932556,354.244476 215.452682,356.941925 215.856979,359.296936 
	C216.876892,365.237610 220.411316,368.905975 226.393921,368.986786 
	C231.222687,369.052002 236.054031,369.061554 240.882401,368.982880 
	C245.808289,368.902618 250.283401,364.328247 251.116135,359.537354 
	C251.557114,357.000336 252.742981,353.098785 254.402756,352.619598 
	C256.859192,351.910370 260.381439,353.111420 262.829132,354.553101 
	C266.934082,356.970856 270.940033,358.395294 274.978973,355.400726 
	C278.788605,352.576233 282.199127,349.181702 285.609894,345.857941 
	C291.581604,340.038544 291.838898,335.040314 286.750488,328.249084 
	C283.250671,323.578125 285.169128,318.735260 290.951141,318.027130 
	C299.710327,316.954376 303.711639,310.519867 303.049713,303.845367 
	C302.755310,300.876862 303.023773,297.854675 302.995239,294.857208 
	C302.927917,287.782745 298.790833,283.264374 292.031860,281.866486 
	C289.682098,281.380524 286.665192,279.794830 285.778564,277.870331 
	C285.010681,276.203613 286.273071,272.950806 287.605042,271.091980 
	C291.280212,265.963257 291.150299,259.697205 286.657837,255.139847 
	C284.554108,253.005768 282.244873,251.049835 280.322571,248.765884 
	C274.044067,241.306213 268.180664,241.582520 260.806976,246.666168 
	C256.543213,249.605759 251.807663,247.478333 251.005783,242.429016 
	C249.545914,233.236618 246.870483,231.000229 236.381409,231.000000 
z"/>
<path fill="#FFFFFF" opacity="1.000000" stroke="none" 
	d="
M114.725693,373.710876 
	C111.412140,379.306641 107.582054,380.576508 102.274887,377.684875 
	C80.539223,365.841980 58.795002,354.011230 37.237762,341.850159 
	C35.172550,340.685089 33.376675,337.307770 33.257351,334.869293 
	C33.109703,331.851959 34.694481,328.862030 38.600510,327.929993 
	C44.994026,326.404358 51.283642,324.443329 58.146187,322.517456 
	C52.874283,266.241180 68.349686,216.427109 108.780212,175.989258 
	C149.165207,135.596939 198.677139,119.876244 255.461060,125.313629 
	C257.166901,67.875526 283.949432,27.222448 341.096649,12.597435 
	C381.591156,2.234157 418.867828,13.953721 447.355469,45.259087 
	C481.907196,83.228294 482.665955,132.519714 464.193481,168.502335 
	C468.132599,170.669815 472.111603,172.766083 475.995605,175.025665 
	C479.139191,176.854492 481.497559,179.473343 480.925079,183.346252 
	C480.341644,187.293274 477.680450,189.142670 473.700806,190.086166 
	C455.406616,194.423264 437.174500,199.024094 418.938751,203.604492 
	C412.653992,205.183075 408.785767,203.495041 407.041321,197.672272 
	C401.335754,178.628021 395.635834,159.578903 390.342560,140.418701 
	C389.753479,138.286346 391.071869,134.523041 392.801514,133.157471 
	C394.613739,131.726700 398.350830,131.311066 400.604980,132.158508 
	C405.332520,133.935806 409.639191,136.832520 414.145996,139.284485 
	C423.118683,117.321999 417.341522,94.495796 400.095306,79.743118 
	C381.177002,63.560162 354.787231,62.447876 334.841980,77.616180 
	C318.917145,89.726944 312.225281,106.025879 314.271515,125.471420 
	C315.036163,132.738373 318.757812,139.726776 321.418243,146.733185 
	C321.930603,148.082550 323.725403,148.996475 325.022705,149.988129 
	C335.454956,157.962540 346.810364,164.976730 356.180695,174.044205 
	C379.778015,196.878860 395.974396,224.473511 403.852509,256.487854 
	C406.436005,266.986481 408.183899,277.853790 408.772827,288.636688 
	C409.429749,300.664612 409.153046,312.881897 407.789337,324.846558 
	C406.113678,339.548157 401.905426,353.760956 396.189972,367.528503 
	C390.243622,381.852173 382.580505,395.119110 372.987122,407.796875 
	C386.872833,407.796875 400.242920,407.796875 414.000000,407.796875 
	C414.000000,400.978363 413.660309,394.328796 414.175995,387.746277 
	C414.368103,385.294006 416.011597,382.261078 417.969238,380.805511 
	C420.852234,378.661926 424.389862,379.792328 426.820129,382.349854 
	C436.491516,392.527802 445.954803,402.903503 455.628265,413.079437 
	C461.022583,418.753906 466.721527,424.137665 472.193909,429.739624 
	C474.128906,431.720459 475.883636,433.895081 477.573944,436.093964 
	C482.488098,442.486633 482.306671,444.075775 476.791321,449.731201 
	C467.062744,459.706818 457.389984,469.737122 447.731812,479.781036 
	C440.730682,487.061768 433.648468,494.273254 426.892151,501.776520 
	C424.107971,504.868469 420.732697,504.478333 417.789673,503.705750 
	C414.779053,502.915436 413.773407,499.974274 413.917755,496.562103 
	C414.198578,489.923981 414.000000,483.265594 414.000000,476.000000 
	C411.908234,476.000000 409.982056,476.000000 408.055847,476.000000 
	C286.235413,476.000000 164.414948,476.000061 42.594501,475.999817 
	C34.480110,475.999817 33.005444,474.500427 33.001995,466.188629 
	C32.995224,449.857025 32.989708,433.525421 33.005127,417.193817 
	C33.011192,410.770935 35.798798,408.004913 42.269569,408.004211 
	C107.762642,407.997345 173.256226,408.132721 238.748337,407.882141 
	C251.073853,407.834991 263.019958,404.556488 274.454437,399.858398 
	C290.260040,393.364441 303.672333,383.407104 314.817780,370.574890 
	C327.294403,356.210083 335.524567,339.580292 338.911499,320.799500 
	C340.124756,314.071777 340.801697,307.170441 340.913788,300.335083 
	C341.277527,278.150696 334.674255,257.928619 322.166046,239.750610 
	C306.281830,216.666275 284.396576,201.551086 257.255554,195.320312 
	C234.389664,190.070984 211.654739,192.105194 189.931458,201.969055 
	C176.289230,208.163589 164.050064,216.370712 154.116776,227.534454 
	C140.842651,242.452850 131.272324,259.470642 128.055450,279.479858 
	C126.764809,287.507721 126.148285,295.643890 125.138214,304.490234 
	C131.910538,302.762421 137.467056,301.711212 142.749527,299.872589 
	C146.482086,298.573486 149.510681,299.161743 152.043640,301.666260 
	C154.855392,304.446411 154.492157,307.754333 152.507675,311.037415 
	C144.442581,324.380066 136.426071,337.752075 128.389099,351.111725 
	C123.916328,358.546722 119.438507,365.978638 114.725693,373.710876 
M392.997620,277.719269 
	C391.998505,272.819397 391.137238,267.886597 389.977448,263.025085 
	C383.476288,235.774353 370.478943,211.873642 351.653534,191.299927 
	C336.919952,175.197998 319.389862,162.829102 299.430145,153.643799 
	C279.853790,144.634903 259.302826,139.865829 238.061386,139.308685 
	C225.116898,138.969177 211.906464,140.709854 199.142868,143.196533 
	C171.855377,148.512848 147.786041,161.098602 127.101273,179.556870 
	C108.808739,195.880417 94.398254,215.200394 84.917137,238.089676 
	C76.751900,257.802155 72.429955,278.263336 72.135963,299.485626 
	C72.002159,309.143860 73.261665,318.828217 74.038689,328.488678 
	C74.312157,331.888519 72.546288,333.817413 69.820908,334.923187 
	C67.126266,336.016510 64.234718,336.624542 61.078003,337.548340 
	C75.684998,345.568176 89.985275,353.419617 104.304268,361.281311 
	C112.719933,347.385712 120.874802,333.920685 129.511536,319.660065 
	C126.040161,320.215851 123.412773,320.308014 121.007385,321.086304 
	C115.003860,323.028778 111.339493,318.292816 111.046211,313.606812 
	C110.817627,309.954590 111.164330,306.268005 110.972618,302.611511 
	C109.945801,283.027496 114.357140,264.516113 122.622353,246.972458 
	C130.693222,229.841324 142.813232,215.837280 157.512283,203.890976 
	C176.254868,188.658325 197.867813,180.397980 221.566818,178.230301 
	C235.090332,176.993347 248.832092,177.423706 262.263733,180.952042 
	C283.285126,186.474091 301.913269,196.184555 317.738739,211.200409 
	C326.453308,219.469147 333.661713,228.805832 339.778168,239.164261 
	C349.498871,255.626648 354.751068,273.453247 355.788483,292.319305 
	C356.325317,302.081604 355.225006,312.040741 353.892548,321.777954 
	C350.594177,345.881653 339.414307,366.410736 323.202057,384.138489 
	C311.700531,396.715179 297.861176,406.296539 282.079773,413.035522 
	C267.613281,419.213013 252.594345,422.906525 236.889923,422.942657 
	C175.725800,423.083344 114.561134,423.000000 53.396671,423.000000 
	C51.641926,423.000000 49.887184,423.000000 48.329365,423.000000 
	C48.329365,436.393219 48.329365,449.133667 48.329365,462.000000 
	C50.146622,462.000000 51.636631,462.007050 53.126564,461.998993 
	C114.376884,461.666840 175.626968,461.203400 236.877686,461.094574 
	C251.546219,461.068512 265.821075,458.966034 279.659729,454.604370 
	C308.463348,445.526093 333.316010,430.166168 353.402832,407.230225 
	C365.564575,393.343445 375.506348,378.195282 382.373383,361.106934 
	C389.613739,343.089722 394.387207,324.485321 393.974792,304.872955 
	C393.790771,296.121582 393.333221,287.376007 392.997620,277.719269 
M308.562439,43.960339 
	C306.434601,45.745975 304.216644,47.435490 302.193329,49.332611 
	C287.498901,63.110653 277.725647,79.864548 273.393616,99.469177 
	C271.678680,107.229988 271.606293,115.375092 271.069305,123.364258 
	C270.857269,126.518753 271.962616,128.764114 275.886230,129.580551 
	C282.298950,130.914886 288.532013,133.126236 294.821533,135.031342 
	C296.806000,135.632431 298.728668,136.437485 300.966614,137.253891 
	C298.546051,126.512970 298.081665,116.645203 299.982971,106.693138 
	C303.379059,88.916466 312.229767,74.677795 327.185547,64.291656 
	C342.132019,53.911991 358.404816,50.079567 376.508820,52.909668 
	C397.993713,56.268284 414.340363,67.340790 424.806122,85.930229 
	C436.365570,106.462349 435.983734,128.139420 426.607666,149.526031 
	C425.216827,152.698593 421.947845,155.536316 418.845978,157.281799 
	C417.064911,158.284027 413.871857,156.777084 410.801056,156.323929 
	C413.413239,165.343719 416.156769,174.177872 418.476196,183.122025 
	C419.485382,187.013718 421.375916,187.578156 424.888885,186.632767 
	C434.086884,184.157516 443.349609,181.922562 452.696198,179.564133 
	C447.187958,175.583145 444.593414,173.541611 448.992950,165.270111 
	C459.142731,146.187744 463.501099,125.870537 459.825195,104.578377 
	C455.760376,81.033630 444.624908,61.189175 425.614197,46.043610 
	C399.243408,25.034346 369.806244,19.350084 337.860260,29.250912 
	C327.765381,32.379562 318.632263,38.611523 308.562439,43.960339 
M339.470825,441.017365 
	C328.270386,448.075531 317.069946,455.133728 306.174042,462.000000 
	C307.082458,462.000000 308.657410,462.000000 310.232361,462.000000 
	C347.023376,462.000000 383.814514,462.049835 420.605164,461.933441 
	C424.943542,461.919739 427.469452,463.441071 428.210114,467.701019 
	C428.689789,470.459869 429.080078,473.234253 429.650299,476.901123 
	C441.098328,464.982544 451.951172,453.683594 462.821411,442.366516 
	C451.980164,431.108002 441.067078,419.774902 430.153992,408.441772 
	C429.000061,410.249084 429.009064,411.214630 428.998627,412.179993 
	C428.905518,420.778412 426.721466,422.999695 418.362915,422.999878 
	C400.050659,423.000305 381.737091,422.898773 363.427734,423.128571 
	C361.150208,423.157166 358.537628,424.500824 356.695496,425.994019 
	C350.969910,430.634918 345.540558,435.641266 339.470825,441.017365 
z"/>
<path fill="#FFFFFF" opacity="1.000000" stroke="none" 
	d="
M236.857269,231.000000 
	C246.870483,231.000229 249.545914,233.236618 251.005783,242.429016 
	C251.807663,247.478333 256.543213,249.605759 260.806976,246.666168 
	C268.180664,241.582520 274.044067,241.306213 280.322571,248.765884 
	C282.244873,251.049835 284.554108,253.005768 286.657837,255.139847 
	C291.150299,259.697205 291.280212,265.963257 287.605042,271.091980 
	C286.273071,272.950806 285.010681,276.203613 285.778564,277.870331 
	C286.665192,279.794830 289.682098,281.380524 292.031860,281.866486 
	C298.790833,283.264374 302.927917,287.782745 302.995239,294.857208 
	C303.023773,297.854675 302.755310,300.876862 303.049713,303.845367 
	C303.711639,310.519867 299.710327,316.954376 290.951141,318.027130 
	C285.169128,318.735260 283.250671,323.578125 286.750488,328.249084 
	C291.838898,335.040314 291.581604,340.038544 285.609894,345.857941 
	C282.199127,349.181702 278.788605,352.576233 274.978973,355.400726 
	C270.940033,358.395294 266.934082,356.970856 262.829132,354.553101 
	C260.381439,353.111420 256.859192,351.910370 254.402756,352.619598 
	C252.742981,353.098785 251.557114,357.000336 251.116135,359.537354 
	C250.283401,364.328247 245.808289,368.902618 240.882401,368.982880 
	C236.054031,369.061554 231.222687,369.052002 226.393921,368.986786 
	C220.411316,368.905975 216.876892,365.237610 215.856979,359.296936 
	C215.452682,356.941925 213.932556,354.244476 212.069321,352.803680 
	C209.506058,350.821625 206.834259,351.934784 204.182022,354.146881 
	C199.258255,358.253540 193.043015,358.139069 188.600464,353.132477 
	C186.173874,350.397797 183.442719,347.933868 180.857269,345.339508 
	C175.872940,340.337952 175.396576,335.148071 179.360107,329.130829 
	C183.468369,322.893860 181.862274,319.465668 174.521255,317.941284 
	C167.843918,316.554718 163.507904,312.448456 163.962463,305.186951 
	C164.180527,301.703247 164.051971,298.193726 163.989578,294.697479 
	C163.843185,286.495331 168.172058,283.121613 175.125259,282.018433 
	C181.417038,281.020203 183.409195,277.416534 179.937408,272.078461 
	C174.594986,263.864136 176.384933,256.931458 182.699875,251.831985 
	C186.075790,249.105835 189.428162,246.271866 193.128326,244.047333 
	C197.057022,241.685364 200.715897,243.309586 204.356644,245.660416 
	C206.364441,246.956879 209.789017,248.392822 211.320847,247.532654 
	C213.487976,246.315720 215.375092,243.188568 215.827179,240.605774 
	C216.975021,234.048355 219.822952,231.021118 226.389053,231.001709 
	C229.719803,230.991867 233.050629,231.000000 236.857269,231.000000 
M196.003723,328.438629 
	C195.137360,331.111633 194.270996,333.784607 193.292038,336.804993 
	C194.265335,337.721924 195.561554,338.943085 196.785202,340.095856 
	C203.702286,336.376953 210.704483,335.521912 217.694717,338.350861 
	C224.656982,341.168427 229.057632,346.555267 230.393051,353.819153 
	C232.817825,353.819153 234.783432,353.819153 236.714142,353.819153 
	C239.492355,338.244598 253.912720,333.845734 265.633331,338.489288 
	C269.737640,340.115356 271.782959,339.827576 273.726105,336.324249 
	C265.759979,320.141785 270.688599,308.387695 287.841217,302.389496 
	C288.515594,298.694061 287.957764,296.429230 283.323090,295.749176 
	C280.693970,295.363373 278.022827,292.925964 276.054962,290.783844 
	C268.283661,282.324402 268.074158,272.989166 273.786407,263.426880 
	C270.273865,259.755463 270.327362,259.899048 265.962891,261.525574 
	C252.643433,266.489380 239.391571,260.076660 236.532318,246.129013 
	C234.591019,246.129013 232.621918,246.129013 230.412216,246.129013 
	C229.954559,247.542587 229.604431,249.076889 228.977737,250.488373 
	C223.780045,262.194916 211.600266,265.683105 201.812729,261.696716 
	C197.550552,259.960754 195.263504,260.160828 193.039261,263.836334 
	C201.143616,276.335876 195.369812,291.137299 183.555817,295.564972 
	C179.288330,297.164368 178.135620,298.891113 179.211884,302.330017 
	C182.006561,303.658997 184.483246,304.763184 186.893661,305.996826 
	C194.019974,309.644043 198.949738,321.938385 196.003723,328.438629 
z"/>
<path fill="#000000" opacity="1.000000" stroke="none" 
	d="
M392.998718,278.173523 
	C393.333221,287.376007 393.790771,296.121582 393.974792,304.872955 
	C394.387207,324.485321 389.613739,343.089722 382.373383,361.106934 
	C375.506348,378.195282 365.564575,393.343445 353.402832,407.230225 
	C333.316010,430.166168 308.463348,445.526093 279.659729,454.604370 
	C265.821075,458.966034 251.546219,461.068512 236.877686,461.094574 
	C175.626968,461.203400 114.376884,461.666840 53.126564,461.998993 
	C51.636631,462.007050 50.146622,462.000000 48.329365,462.000000 
	C48.329365,449.133667 48.329365,436.393219 48.329365,423.000000 
	C49.887184,423.000000 51.641926,423.000000 53.396671,423.000000 
	C114.561134,423.000000 175.725800,423.083344 236.889923,422.942657 
	C252.594345,422.906525 267.613281,419.213013 282.079773,413.035522 
	C297.861176,406.296539 311.700531,396.715179 323.202057,384.138489 
	C339.414307,366.410736 350.594177,345.881653 353.892548,321.777954 
	C355.225006,312.040741 356.325317,302.081604 355.788483,292.319305 
	C354.751068,273.453247 349.498871,255.626648 339.778168,239.164261 
	C333.661713,228.805832 326.453308,219.469147 317.738739,211.200409 
	C301.913269,196.184555 283.285126,186.474091 262.263733,180.952042 
	C248.832092,177.423706 235.090332,176.993347 221.566818,178.230301 
	C197.867813,180.397980 176.254868,188.658325 157.512283,203.890976 
	C142.813232,215.837280 130.693222,229.841324 122.622353,246.972458 
	C114.357140,264.516113 109.945801,283.027496 110.972618,302.611511 
	C111.164330,306.268005 110.817627,309.954590 111.046211,313.606812 
	C111.339493,318.292816 115.003860,323.028778 121.007385,321.086304 
	C123.412773,320.308014 126.040161,320.215851 129.511536,319.660065 
	C120.874802,333.920685 112.719933,347.385712 104.304268,361.281311 
	C89.985275,353.419617 75.684998,345.568176 61.078003,337.548340 
	C64.234718,336.624542 67.126266,336.016510 69.820908,334.923187 
	C72.546288,333.817413 74.312157,331.888519 74.038689,328.488678 
	C73.261665,318.828217 72.002159,309.143860 72.135963,299.485626 
	C72.429955,278.263336 76.751900,257.802155 84.917137,238.089676 
	C94.398254,215.200394 108.808739,195.880417 127.101273,179.556870 
	C147.786041,161.098602 171.855377,148.512848 199.142868,143.196533 
	C211.906464,140.709854 225.116898,138.969177 238.061386,139.308685 
	C259.302826,139.865829 279.853790,144.634903 299.430145,153.643799 
	C319.389862,162.829102 336.919952,175.197998 351.653534,191.299927 
	C370.478943,211.873642 383.476288,235.774353 389.977448,263.025085 
	C391.137238,267.886597 391.998505,272.819397 392.998718,278.173523 
z"/>
<path fill="#000000" opacity="1.000000" stroke="none" 
	d="
M308.810730,43.691795 
	C318.632263,38.611523 327.765381,32.379562 337.860260,29.250912 
	C369.806244,19.350084 399.243408,25.034346 425.614197,46.043610 
	C444.624908,61.189175 455.760376,81.033630 459.825195,104.578377 
	C463.501099,125.870537 459.142731,146.187744 448.992950,165.270111 
	C444.593414,173.541611 447.187958,175.583145 452.696198,179.564133 
	C443.349609,181.922562 434.086884,184.157516 424.888885,186.632767 
	C421.375916,187.578156 419.485382,187.013718 418.476196,183.122025 
	C416.156769,174.177872 413.413239,165.343719 410.801056,156.323929 
	C413.871857,156.777084 417.064911,158.284027 418.845978,157.281799 
	C421.947845,155.536316 425.216827,152.698593 426.607666,149.526031 
	C435.983734,128.139420 436.365570,106.462349 424.806122,85.930229 
	C414.340363,67.340790 397.993713,56.268284 376.508820,52.909668 
	C358.404816,50.079567 342.132019,53.911991 327.185547,64.291656 
	C312.229767,74.677795 303.379059,88.916466 299.982971,106.693138 
	C298.081665,116.645203 298.546051,126.512970 300.966614,137.253891 
	C298.728668,136.437485 296.806000,135.632431 294.821533,135.031342 
	C288.532013,133.126236 282.298950,130.914886 275.886230,129.580551 
	C271.962616,128.764114 270.857269,126.518753 271.069305,123.364258 
	C271.606293,115.375092 271.678680,107.229988 273.393616,99.469177 
	C277.725647,79.864548 287.498901,63.110653 302.193329,49.332611 
	C304.216644,47.435490 306.434601,45.745975 308.810730,43.691795 
z"/>
<path fill="#000000" opacity="1.000000" stroke="none" 
	d="
M339.733551,440.761597 
	C345.540558,435.641266 350.969910,430.634918 356.695496,425.994019 
	C358.537628,424.500824 361.150208,423.157166 363.427734,423.128571 
	C381.737091,422.898773 400.050659,423.000305 418.362915,422.999878 
	C426.721466,422.999695 428.905518,420.778412 428.998627,412.179993 
	C429.009064,411.214630 429.000061,410.249084 430.153992,408.441772 
	C441.067078,419.774902 451.980164,431.108002 462.821411,442.366516 
	C451.951172,453.683594 441.098328,464.982544 429.650299,476.901123 
	C429.080078,473.234253 428.689789,470.459869 428.210114,467.701019 
	C427.469452,463.441071 424.943542,461.919739 420.605164,461.933441 
	C383.814514,462.049835 347.023376,462.000000 310.232361,462.000000 
	C308.657410,462.000000 307.082458,462.000000 306.174042,462.000000 
	C317.069946,455.133728 328.270386,448.075531 339.733551,440.761597 
z"/>
<path fill="#000000" opacity="1.000000" stroke="none" 
	d="
M196.026062,328.013855 
	C198.949738,321.938385 194.019974,309.644043 186.893661,305.996826 
	C184.483246,304.763184 182.006561,303.658997 179.211884,302.330017 
	C178.135620,298.891113 179.288330,297.164368 183.555817,295.564972 
	C195.369812,291.137299 201.143616,276.335876 193.039246,263.836304 
	C195.263504,260.160828 197.550552,259.960754 201.812729,261.696716 
	C211.600266,265.683105 223.780045,262.194916 228.977737,250.488373 
	C229.604431,249.076889 229.954559,247.542587 230.412216,246.129013 
	C232.621918,246.129013 234.591019,246.129013 236.532318,246.129013 
	C239.391571,260.076660 252.643433,266.489380 265.962891,261.525574 
	C270.327362,259.899048 270.273865,259.755463 273.786407,263.426880 
	C268.074158,272.989166 268.283661,282.324402 276.054962,290.783844 
	C278.022827,292.925964 280.693970,295.363373 283.323090,295.749176 
	C287.957764,296.429230 288.515594,298.694061 287.843567,302.387817 
	C270.688599,308.387695 265.759979,320.141785 273.726105,336.324249 
	C271.782959,339.827576 269.737640,340.115356 265.633331,338.489288 
	C253.912720,333.845734 239.492355,338.244598 236.714142,353.819153 
	C234.783432,353.819153 232.817825,353.819153 230.393051,353.819153 
	C229.057632,346.555267 224.656982,341.168427 217.694717,338.350861 
	C210.704483,335.521912 203.702286,336.376953 196.785202,340.095856 
	C195.561554,338.943085 194.265335,337.721924 193.292038,336.804993 
	C194.270996,333.784607 195.137360,331.111633 196.026062,328.013855 
M208.025467,272.460510 
	C191.553589,287.670380 192.729004,312.743347 207.560440,327.022461 
	C216.518875,335.647247 227.588120,338.381256 239.514908,336.845062 
	C247.627975,335.800049 255.027420,331.922302 260.476166,325.806549 
	C268.131012,317.214661 271.557098,307.065643 270.131042,295.208984 
	C269.025604,286.018066 265.309784,278.249908 258.663574,272.364136 
	C244.315674,259.657867 223.338394,259.350922 208.025467,272.460510 
z"/>
<path fill="#FFFFFF" opacity="1.000000" stroke="none" 
	d="
M208.289795,272.213104 
	C223.338394,259.350922 244.315674,259.657867 258.663574,272.364136 
	C265.309784,278.249908 269.025604,286.018066 270.131042,295.208984 
	C271.557098,307.065643 268.131012,317.214661 260.476166,325.806549 
	C255.027420,331.922302 247.627975,335.800049 239.514908,336.845062 
	C227.588120,338.381256 216.518875,335.647247 207.560440,327.022461 
	C192.729004,312.743347 191.553589,287.670380 208.289795,272.213104 
M254.998642,294.774780 
	C254.440704,293.449860 253.929764,292.102783 253.317459,290.803467 
	C247.702881,278.888947 235.435410,275.363525 225.171310,279.384491 
	C215.557922,283.150513 207.602203,296.409790 212.747818,307.805237 
	C217.649200,318.659760 228.788528,324.832031 241.082077,320.853394 
	C249.022659,318.283539 257.951691,307.189148 254.998642,294.774780 
z"/>
<path fill="#000000" opacity="1.000000" stroke="none" 
	d="
M254.999390,295.192780 
	C257.951691,307.189148 249.022659,318.283539 241.082077,320.853394 
	C228.788528,324.832031 217.649200,318.659760 212.747818,307.805237 
	C207.602203,296.409790 215.557922,283.150513 225.171310,279.384491 
	C235.435410,275.363525 247.702881,278.888947 253.317459,290.803467 
	C253.929764,292.102783 254.440704,293.449860 254.999390,295.192780 
z"/>
</svg>